<?xml version="1.0" standalone="no"?>
<!DOCTYPE svg PUBLIC "-//W3C//DTD SVG 20010904//EN"
 "http://www.w3.org/TR/2001/REC-SVG-20010904/DTD/svg10.dtd">
<svg version="1.0" xmlns="http://www.w3.org/2000/svg"
 width="512.000000pt" height="512.000000pt" viewBox="0 0 512.000000 512.000000"
 preserveAspectRatio="xMidYMid meet">

<g transform="translate(0.000000,512.000000) scale(0.100000,-0.100000)"
fill="#000000" stroke="none">
<path d="M3550 3993 c-64 -23 -161 -122 -183 -187 -24 -69 -22 -162 4 -233 20
-53 47 -84 337 -375 l316 -318 -1895 -2 -1894 -3 -50 -25 c-64 -31 -124 -91
-155 -155 -34 -69 -35 -198 -2 -265 34 -71 75 -113 144 -151 l63 -34 1894 -3
1895 -2 -316 -318 c-290 -291 -317 -322 -337 -375 -26 -71 -28 -164 -4 -233
23 -67 120 -164 187 -187 69 -24 162 -22 233 4 55 20 91 54 669 633 490 490
616 621 634 661 34 72 34 199 1 270 -19 40 -150 176 -635 661 -578 579 -614
613 -669 633 -69 25 -171 27 -237 4z"/>
</g>
</svg>
