<?xml version="1.0" standalone="no"?>
<!DOCTYPE svg PUBLIC "-//W3C//DTD SVG 20010904//EN"
 "http://www.w3.org/TR/2001/REC-SVG-20010904/DTD/svg10.dtd">
<svg version="1.0" xmlns="http://www.w3.org/2000/svg"
 width="512.000000pt" height="512.000000pt" viewBox="0 0 512.000000 512.000000"
 preserveAspectRatio="xMidYMid meet">

<g transform="translate(0.000000,512.000000) scale(0.100000,-0.100000)"
fill="#000000" stroke="none">
<path d="M63 4256 c-67 -30 -64 42 -61 -1176 l3 -1100 28 -27 27 -28 196 -3
c114 -2 217 1 246 7 73 16 150 56 206 106 l50 45 213 -161 c118 -89 261 -201
319 -249 352 -292 866 -683 959 -729 189 -96 384 -113 515 -45 46 23 54 24 99
13 138 -33 297 37 385 169 l28 44 85 2 c137 5 258 67 324 167 28 43 33 47 83
52 166 18 308 163 320 327 l4 65 132 72 132 73 53 -51 c29 -28 83 -65 119 -82
l67 -32 219 -3 c238 -4 261 0 289 47 16 27 17 114 17 1121 0 1001 -1 1094 -17
1120 -19 32 -51 50 -91 50 -34 0 -922 -322 -978 -355 -62 -36 -150 -137 -171
-195 -10 -28 -21 -50 -25 -50 -4 0 -74 22 -155 49 -172 57 -327 121 -538 219
-199 94 -285 116 -440 116 -83 0 -142 -6 -190 -18 -88 -23 -231 -89 -315 -148
l-65 -45 -125 -7 c-69 -4 -253 -18 -410 -31 -157 -14 -290 -25 -296 -25 -6 0
-14 24 -17 52 -13 103 -92 227 -184 286 -41 27 -912 351 -983 366 -14 3 -39
-1 -57 -8z m532 -387 c198 -71 376 -141 397 -154 52 -34 92 -120 86 -183 -5
-53 -459 -1271 -490 -1314 -10 -16 -40 -40 -66 -55 -45 -27 -53 -28 -177 -28
l-130 0 -3 933 c-2 747 0 932 11 932 7 0 174 -59 372 -131z m4315 -1014 l0
-935 -116 0 c-142 0 -187 12 -239 65 -38 38 -56 80 -278 673 -175 466 -237
643 -237 675 1 86 62 167 151 201 206 77 697 255 707 255 9 1 12 -192 12 -934z
m-2134 764 c93 -13 187 -45 315 -110 183 -91 534 -225 704 -268 l40 -10 214
-570 c117 -314 211 -575 209 -582 -2 -6 -59 -42 -126 -79 l-122 -67 -178 177
c-124 124 -291 272 -562 497 -212 176 -424 357 -472 401 -106 99 -116 100
-243 41 -53 -25 -118 -46 -167 -55 -44 -8 -85 -17 -92 -21 -8 -5 -36 -33 -64
-64 -62 -67 -149 -113 -248 -130 -62 -11 -73 -10 -108 6 -53 25 -72 70 -56
135 27 112 168 298 334 440 191 164 326 237 476 259 30 5 58 9 62 10 4 0 41
-4 84 -10z m-977 -316 c-140 -173 -191 -286 -193 -423 -1 -74 3 -92 27 -142
91 -186 330 -230 578 -107 44 22 105 64 137 93 48 45 68 55 127 70 39 10 90
26 114 37 24 10 48 19 53 19 6 0 47 -32 92 -71 44 -39 240 -204 434 -366 512
-426 712 -629 712 -718 0 -46 -38 -96 -93 -124 -45 -22 -48 -22 -75 -6 -15 9
-169 160 -343 335 -173 176 -328 324 -344 330 -63 24 -135 -30 -135 -102 0
-37 9 -49 139 -186 77 -81 218 -226 315 -322 97 -96 176 -180 176 -187 0 -24
-63 -73 -112 -88 -98 -29 -99 -27 -406 281 -150 151 -285 279 -299 285 -61 23
-133 -33 -133 -103 0 -47 7 -55 304 -355 l220 -222 -27 -40 c-15 -22 -39 -47
-54 -54 -105 -53 -124 -41 -450 288 -265 268 -274 275 -312 275 -74 0 -128
-74 -102 -142 5 -14 112 -130 237 -257 l227 -231 -50 0 c-59 0 -138 22 -213
60 -85 43 -436 309 -870 660 -140 114 -338 269 -440 345 -102 76 -187 139
-188 141 -7 5 392 1059 402 1066 6 4 38 8 71 9 33 0 148 8 255 18 107 10 216
19 243 20 l47 1 -71 -87z"/>
</g>
</svg>
