<?xml version="1.0" standalone="no"?>
<!DOCTYPE svg PUBLIC "-//W3C//DTD SVG 20010904//EN"
 "http://www.w3.org/TR/2001/REC-SVG-20010904/DTD/svg10.dtd">
<svg version="1.0" xmlns="http://www.w3.org/2000/svg"
 width="512.000000pt" height="512.000000pt" viewBox="0 0 512.000000 512.000000"
 preserveAspectRatio="xMidYMid meet">

<g transform="translate(0.000000,512.000000) scale(0.100000,-0.100000)"
fill="#000000" stroke="none">
<path d="M521 4304 c-169 -45 -301 -180 -346 -351 -13 -49 -15 -259 -15 -1553
0 -1646 -4 -1549 61 -1671 62 -115 197 -214 328 -239 73 -14 3947 -14 4022 0
183 34 344 195 379 379 14 74 14 2988 0 3062 -25 131 -124 266 -239 328 -123
65 25 61 -2156 60 -1696 0 -1988 -2 -2034 -15z m4023 -318 c18 -8 46 -31 62
-51 23 -31 29 -50 32 -105 l4 -66 -998 -714 c-598 -427 -1016 -720 -1041 -728
-37 -13 -49 -12 -85 0 -25 9 -455 309 -1038 726 l-995 712 -3 42 c-7 89 27
155 93 184 46 20 3920 20 3969 0z m-2176 -1949 c64 -31 72 -32 192 -32 118 0
129 2 190 30 39 18 434 293 978 681 l912 652 0 -1172 0 -1171 -557 557 c-484
483 -564 558 -600 569 -117 34 -228 -77 -194 -194 11 -36 86 -116 569 -599
l557 -558 -1855 0 -1855 0 557 558 c443 444 558 565 568 595 35 111 -61 219
-179 202 -45 -6 -57 -17 -609 -568 l-562 -562 0 1172 0 1172 911 -650 c527
-377 938 -664 977 -682z"/>
</g>
</svg>
