<?xml version="1.0" standalone="no"?>
<!DOCTYPE svg PUBLIC "-//W3C//DTD SVG 20010904//EN"
 "http://www.w3.org/TR/2001/REC-SVG-20010904/DTD/svg10.dtd">
<svg version="1.0" xmlns="http://www.w3.org/2000/svg"
 width="512.000000pt" height="512.000000pt" viewBox="0 0 512.000000 512.000000"
 preserveAspectRatio="xMidYMid meet">

<g transform="translate(0.000000,512.000000) scale(0.100000,-0.100000)"
fill="#000000" stroke="none">
<path d="M1115 4949 c-116 -15 -249 -82 -326 -165 -55 -60 -309 -362 -360
-429 -321 -421 -354 -913 -97 -1429 92 -184 198 -339 372 -544 40 -48 131
-156 201 -241 345 -415 816 -886 1243 -1242 336 -280 654 -512 807 -589 186
-92 334 -129 550 -137 168 -6 285 8 440 52 114 33 288 117 386 187 127 92 467
387 509 442 75 99 110 206 110 337 0 132 -40 246 -124 353 -45 59 -809 665
-880 700 -172 83 -360 68 -534 -41 -51 -32 -101 -79 -222 -210 -43 -46 -66
-62 -103 -73 -59 -16 -128 -7 -178 23 -139 83 -914 860 -974 977 -25 49 -30
120 -11 177 17 51 51 88 173 192 196 165 253 428 143 656 -51 106 -630 832
-712 893 -125 93 -264 131 -413 111z m186 -341 c30 -17 114 -115 336 -392 162
-202 303 -383 313 -400 49 -85 30 -197 -48 -269 -26 -24 -78 -73 -116 -108
-130 -121 -188 -251 -188 -419 1 -174 47 -270 227 -472 153 -172 562 -579 735
-733 164 -145 250 -195 372 -215 129 -22 275 8 384 78 67 44 100 76 186 179
74 89 126 118 213 118 44 0 70 -6 96 -21 20 -12 203 -155 405 -317 415 -332
419 -336 419 -447 0 -102 -20 -128 -260 -330 -230 -194 -257 -214 -365 -269
-274 -140 -604 -145 -882 -13 -166 78 -629 432 -1018 776 -194 172 -630 612
-804 811 -231 264 -512 621 -655 834 -200 296 -224 691 -60 1011 55 108 75
135 269 364 167 198 207 237 268 257 43 14 128 3 173 -23z"/>
</g>
</svg>
