<?xml version="1.0" standalone="no"?>
<!DOCTYPE svg PUBLIC "-//W3C//DTD SVG 20010904//EN"
 "http://www.w3.org/TR/2001/REC-SVG-20010904/DTD/svg10.dtd">
<svg version="1.0" xmlns="http://www.w3.org/2000/svg"
 width="512.000000pt" height="512.000000pt" viewBox="0 0 512.000000 512.000000"
 preserveAspectRatio="xMidYMid meet">

<g transform="translate(0.000000,512.000000) scale(0.100000,-0.100000)"
fill="#000000" stroke="none">
<path d="M2335 4945 c-597 -85 -1085 -435 -1353 -970 -132 -265 -191 -550
-179 -870 24 -606 235 -1147 685 -1752 140 -187 241 -310 577 -698 138 -159
283 -329 322 -376 74 -89 117 -119 173 -119 56 0 99 30 173 119 39 47 184 217
322 376 539 623 722 867 917 1225 299 548 414 1176 308 1688 -79 382 -312 757
-625 1009 -213 171 -504 303 -777 354 -148 27 -405 34 -543 14z m493 -329
c515 -105 933 -470 1097 -959 133 -398 83 -931 -135 -1422 -155 -351 -377
-675 -791 -1155 -339 -393 -433 -500 -439 -500 -10 0 -553 629 -680 789 -447
562 -652 977 -736 1496 -25 154 -26 476 -1 598 60 295 192 543 402 752 229
230 511 370 830 414 94 13 362 5 453 -13z"/>
<path d="M2417 4149 c-128 -19 -291 -83 -406 -161 -82 -55 -222 -207 -272
-293 -103 -179 -134 -295 -133 -495 1 -205 39 -345 142 -510 58 -94 195 -233
288 -293 164 -106 324 -152 529 -152 195 1 313 33 490 134 109 62 263 217 326
326 102 177 133 294 133 495 0 201 -32 321 -133 495 -62 107 -208 254 -320
323 -189 116 -423 163 -644 131z m277 -324 c289 -61 506 -329 506 -625 0 -363
-313 -658 -675 -637 -167 10 -298 70 -422 193 -149 149 -213 368 -168 578 72
341 416 564 759 491z"/>
</g>
</svg>
