<svg width="188" height="219" viewBox="0 0 188 219" fill="none" xmlns="http://www.w3.org/2000/svg">
<path d="M72.3 51.3C72.3 49.1 72.1 46.9 71.7 44.7C71.5 42.3 70.9 40.2 69.9 38.4C69.1 36.4 67.8 34.8 66 33.6C64.4 32.4 62.1 31.8 59.1 31.8C55.3 31.8 52.1 33 49.5 35.4C48.3 32.2 47.7 29.3 47.7 26.7C47.7 23.5 48.2 20.4 49.2 17.4C50.4 14.2 52.2 11.4 54.6 8.99999C57 6.59999 60 4.69999 63.6 3.29999C67.4 1.69998 72 0.899983 77.4 0.899983C89.4 0.899983 98.7 4.49998 105.3 11.7C111.9 18.9 115.2 28.8 115.2 41.4V219C109.8 219 104.5 218.6 99.3 217.8C94.3 217 89.7 215.4 85.5 213C81.5 210.4 78.3 206.6 75.9 201.6C73.5 196.6 72.3 189.9 72.3 181.5V51.3ZM43.2 219H40.2C35 219 30 218.5 25.2 217.5C20.4 216.5 16.1 214.7 12.3 212.1C8.7 209.5 5.7 205.9 3.3 201.3C1.1 196.7 2.23517e-07 190.7 2.23517e-07 183.3V1.2H4.8C9.6 1.2 14.3 1.79999 18.9 2.99999C23.5 3.99999 27.6 5.89999 31.2 8.69999C34.8 11.3 37.7 14.9 39.9 19.5C42.1 24.1 43.2 30 43.2 37.2V219ZM144.3 51.3C144.3 49.1 144.1 46.9 143.7 44.7C143.5 42.3 142.9 40.2 141.9 38.4C141.1 36.4 139.8 34.8 138 33.6C136.4 32.4 134.1 31.8 131.1 31.8C127.3 31.8 124.1 33 121.5 35.4C120.3 32.2 119.7 29.3 119.7 26.7C119.7 23.5 120.2 20.4 121.2 17.4C122.4 14.2 124.2 11.4 126.6 8.99999C129 6.59999 132 4.69999 135.6 3.29999C139.4 1.69998 144 0.899983 149.4 0.899983C161.4 0.899983 170.7 4.49998 177.3 11.7C183.9 18.9 187.2 28.8 187.2 41.4V219C181.8 219 176.5 218.6 171.3 217.8C166.3 217 161.7 215.4 157.5 213C153.5 210.4 150.3 206.6 147.9 201.6C145.5 196.6 144.3 189.9 144.3 181.5V51.3Z" fill="#F72585"/>
</svg>
